<?xml version="1.0" encoding="UTF-8"?>
<svg id="Layer_1" xmlns="http://www.w3.org/2000/svg" version="1.1" viewBox="0 0 354.32 324.76">
  <!-- Generator: Adobe Illustrator 30.0.0, SVG Export Plug-In . SVG Version: 2.1.1 Build 123)  -->
  <defs>
    <style>
      .st0 {
        fill: #ff5206;
      }

      .st1 {
        fill: #fff;
      }
    </style>
  </defs>
  <path class="st0" d="M976.33-629.37l481.9-.33c3.02,0,6.03.11,9.03.33,16,1.21,36.67,4.3,57.46,9.62,52.71,13.48,89.64,60.83,89.91,115.24.13,26.01.91,52.18.91,77.39,0,69.13-87.77,74.69-159.83,76.52-19.49.5-32.07,1.58-49,11.24-30.39,17.33-81.87,18.68-128.33-1.32-14.36-6.18-29.8-9.47-45.44-9.68-76.65-.99-186.69,4.46-253.99.74-53.65-2.96-88.52-27.48-91.5-83.5-1.79-33.73-1.05-67.06-.55-100.37.05-3.09.39-7.92.53-11.71,1.59-44.89,23.49-72.02,62.91-81.29,8.51-2,17.25-2.88,25.99-2.88Z"/>
  <path class="st1" d="M1025.24-494.58l25.55-74.39c10.01-16.31,40.86-16.15,57.03-10.96,16.23,5.21,16.52,16.93,17.91,31.8,3.38,36.25,4.52,74.02,6.65,110.43.41,6.94,4.72,36.18.83,40.07-4.75,4.75-43.34,5.76-48.83-3.11l-8.89-93.84-25.39,74.03c-7.09,14.76-36.93,14.69-45.84,2.74l-27.61-72.33-3.34,78.95c-1.29,4.63-.23,10.07-4.43,13.24-7.41,5.59-31.1,4.48-44.46,1.96-4.06-.76-7.06-4.18-7.38-8.3-.55-6.96-.19-16.94-.08-20.19,1.24-38.97,3.1-83.87,6.69-122.54,1.46-15.74,8.18-29.86,24.45-34.09s46.01-2.27,53.72,16.65l23.45,69.89Z"/>
  <path class="st1" d="M1147.07-396.62c-.96-.86-1.62-2.61-2.26-3.79l.19-119.64c1.06-3.4,4.7-4.02,7.8-4.35,6.23-.65,36.76-.96,41.47.5s5.04,6.78,5.51,11.06l-.53,114.42c-1.62,4.94-17.29,6.43-22.11,6.6-6.21.22-25.81-.97-30.08-4.81Z"/>
  <circle class="st1" cx="1172.19" cy="-564.94" r="31.48"/>
  <path class="st1" d="M1376.49-530.19c-3.99,3.97-20.2,10.71-25.78,10.15-8.56-.85-19.9-13.21-31.36-15.3-83.66-15.28-58.19,131.24,12.59,94.54,6.25-3.24,20.33-20.31,8.62-22.63-11.82-2.35-27.46,5.58-29.35-10.83-1.2-10.38-3.12-23.55,8.83-24.93,9.89-1.14,56.88-1.31,64.73,1.1,4.79,1.47,6.09,2.74,6.76,7.68,5.88,43.26-16.78,82.22-59.75,92.8-56.27,13.86-114.86-9.84-125.98-70.7-15.15-82.94,55.61-134.02,132.71-111.85,17.34,4.98,59.63,28.45,37.97,49.98Z"/>
  <path class="st1" d="M1504.51-414.54c-26.57,24.27-75.64,30.46-100,.02-12.51-15.63-14.34-41.03-7.88-59.48,13.71-39.18,63.82-39.06,97.83-33.62.96-24.47-20.44-26.21-39.47-23.75-10.54,1.36-21.73,7.15-30.66,8.4-7.24,1.01-8.09-4.37-10.4-10.4-11.52-30.08-9.72-38.94,21.71-47.53,32.33-8.84,81.91-9.5,104.77,19.16,24.27,30.43,7.3,80.64,13.47,114.84,2.43,13.43,17.79,8.12,20.48,13.49,2.57,5.15-.2,28.71-4.38,33.39-11.01,12.33-60.98,7.11-65.48-14.51ZM1494.4-469.83c-14.04-2.64-42.54-8.27-45.11,12-2.51,19.82,16.57,26.67,31.75,16.66,10.03-6.61,15.61-16.36,13.36-28.66Z"/>
  <path class="st1" d="M1265.38-376.55c1.49-7.77,1.18-4.69,5.91-4.43,24.98,1.35,41.94,2.71,66.32-6.35,11.65-4.33,43.65-27.16,47.18-27.81,29.69-5.52,26.57,40.75-.37,55.81-36.62,20.47-86.04,2.32-119.05-17.21Z"/>
  <path class="st0" d="M94.71,5.81c34.32-.45,69.51.64,103.66.76,65.53.23,134.85-11.6,139.53,76.47,2.97,55.98-3.26,113.79-1,169.98-3.37,39.45-32.51,65.99-71.5,68.5-60.22,3.88-124.4-2.92-185.03.05-45.17-2.87-73.17-34.73-73.54-79.55-.03-3.1,1.15-5.81,1.13-8.95-.27-48.73-3.43-100.86-1.09-149.09C9.6,27.75,41.09,6.52,94.71,5.81Z"/>
  <g>
    <g>
      <path class="st1" d="M53.22,148.92c-4.66-1.3-1.59-10.46-1.51-13.51.68-26.59,2.33-53.22,4.23-79.77,2.36-16.45,37.24-15.58,45.44-7.38,6.12,6.12,10.42,31.79,14.35,40.65l12.51-35.97c2.24-7.19,10.2-9.46,16.95-10.05,13.83-1.21,29.47.02,31.43,16.65,2.39,20.33,2.23,44.15,3.12,64.88.17,3.88,2.7,22.28.06,24.08-3.32-.07-7.61,1.41-10.57,1.43-1.7.01-3.33-.95-5.01-1-4.26-.12-13.97,1.23-16.56-2.43l-3.42-51.57c-5.73,9.53-7.94,31.68-14.49,39.51-5.01,5.98-21.36,6.49-26.67,1.15-3.8-3.82-10.7-30.59-13.6-37.91-.42-1.06-.29-2.98-1.73-2.74l-2.03,49.48c.26,1.55-3.63,4.52-4.48,4.52-5.94,0-23.79,1.18-28,0Z"/>
      <path class="st1" d="M191.22,148.92c-.33-.09-1.77-1.55-1.98-2.02.43-19.5-2.34-42.23-.56-61.53.23-2.5.29-4.86,2.65-6.35,2.67-1.69,29.1-1.8,31.71-.18.52.32,1.68,2.18,1.68,2.57v66l-1.5,1.5h-32Z"/>
      <path class="st1" d="M223.37,67.57c-7.96,8.46-29.42,7.54-34.55-4.25-10.81-24.83,25.93-36.22,36.75-17.75,3.67,6.27,2.84,16.64-2.2,22Z"/>
    </g>
    <g>
      <path class="st1" d="M159.39,192.59c-2.49,2.47-12.59,6.67-16.07,6.33-5.34-.53-12.4-8.23-19.55-9.54-52.15-9.52-36.27,81.81,7.85,58.93,3.89-2.02,12.68-12.66,5.37-14.11-7.37-1.46-17.12,3.48-18.29-6.75-.75-6.47-1.94-14.68,5.51-15.54,6.17-.71,35.45-.82,40.35.69,2.99.92,3.8,1.71,4.21,4.79,3.66,26.96-10.46,51.25-37.25,57.85-35.07,8.64-71.6-6.13-78.53-44.07-9.44-51.7,34.67-83.54,82.72-69.72,10.81,3.11,37.17,17.73,23.67,31.16Z"/>
      <path class="st1" d="M133.72,284.92c-.24-2.65-.05-1.62,1.5-1.98,8.19-1.88,13.79-3.01,20.83-8.19,3.36-2.48,11.59-12.81,12.66-13.35,9.08-4.53,12.35,10.7,5.05,18.06-9.93,10-27.57,8.71-40.04,5.46Z"/>
      <path class="st1" d="M237.72,209.93c1.27-14.98-12.02-15.41-23.36-13.86-3.95.54-19.21,5.87-20.68,5.32-4.88-1.82-9.3-21.16-4.98-25.99,5.98-6.7,40.33-8.27,49.51-7.46,46.87,4.17,33.3,45.77,35.73,79.27,1.15,4.97,6.8,4.95,10.81,6.19l.85,1.15c.29,14.73,1.1,21.38-15.38,22.35-6.12.36-12.01-.58-17.42-3.55-4.37-2.39-5.85-5.79-9.55-8.5-24.25,20.52-66.76,14.52-65.53-23.4,1.05-32.47,34.84-35.39,60.01-31.54ZM219.46,230.16c-14.05,2.36-10.77,25.39,7.48,19.48,5.52-1.79,15.15-12.52,11.35-17.79-1.39-1.92-15.93-2.17-18.83-1.69Z"/>
    </g>
  </g>
  <path class="st0" d="M45.51-619.91l481.9-.33c3.02,0,6.03.11,9.03.33,16,1.21,36.67,4.3,57.46,9.62,52.71,13.48,89.64,60.83,89.91,115.24.13,26.01.91,52.18.91,77.39,0,69.13-39.27,76.9-159.83,76.52-19.49-.06-32.07,1.58-49,11.24-30.39,17.33-81.87,18.68-128.33-1.32-14.36-6.18-29.8-9.47-45.44-9.68-76.65-.99-186.69,4.46-253.99.74-53.65-2.96-88.52-27.48-91.5-83.5-1.79-33.73-1.05-67.06-.55-100.37.05-3.09.39-7.92.53-11.71,1.59-44.89,23.49-72.02,62.91-81.29,8.51-2,17.25-2.88,25.99-2.88Z"/>
  <path class="st1" d="M94.42-485.12l25.55-74.39c10.01-16.31,40.86-16.15,57.03-10.96,16.23,5.21,16.52,16.93,17.91,31.8,3.38,36.25,4.52,74.02,6.65,110.43.41,6.94,4.72,36.18.83,40.07-4.75,4.75-43.34,5.76-48.83-3.11l-8.89-93.84-25.39,74.03c-7.09,14.76-36.93,14.69-45.84,2.74l-27.61-72.33-3.34,78.95c-1.29,4.63-.23,10.07-4.43,13.24-7.41,5.59-31.1,4.48-44.46,1.96-4.06-.76-7.06-4.18-7.38-8.3-.55-6.96-.19-16.94-.08-20.19,1.24-38.97,3.1-83.87,6.69-122.54,1.46-15.74,8.18-29.86,24.45-34.09s46.01-2.27,53.72,16.65l23.45,69.89Z"/>
  <path class="st1" d="M216.25-387.16c-.96-.86-1.62-2.61-2.26-3.79l.19-119.64c1.06-3.4,4.7-4.02,7.8-4.35,6.23-.65,36.76-.96,41.47.5s5.04,6.78,5.51,11.06l-.53,114.42c-1.62,4.94-17.29,6.43-22.11,6.6-6.21.22-25.81-.97-30.08-4.81Z"/>
  <circle class="st1" cx="241.37" cy="-555.48" r="31.48"/>
  <path class="st1" d="M445.67-520.73c-3.99,3.97-20.2,10.71-25.78,10.15-8.56-.85-19.9-13.21-31.36-15.3-83.66-15.28-58.19,131.24,12.59,94.54,6.25-3.24,20.33-20.31,8.62-22.63-11.82-2.35-27.46,5.58-29.35-10.83-1.2-10.38-3.12-23.55,8.83-24.93,9.89-1.14,56.88-1.31,64.73,1.1,4.79,1.47,6.09,2.74,6.76,7.68,5.88,43.26-16.78,82.22-59.75,92.8-56.27,13.86-114.86-9.84-125.98-70.7-15.15-82.94,55.61-134.02,132.71-111.85,17.34,4.98,59.63,28.45,37.97,49.98Z"/>
  <path class="st1" d="M573.68-405.08c-26.57,24.27-75.64,30.46-100,.02-12.51-15.63-14.34-41.03-7.88-59.48,13.71-39.18,63.82-39.06,97.83-33.62.96-24.47-20.44-26.21-39.47-23.75-10.54,1.36-21.73,7.15-30.66,8.4-7.24,1.01-8.09-4.37-10.4-10.4-11.52-30.08-9.72-38.94,21.71-47.53,32.33-8.84,81.91-9.5,104.77,19.16,24.27,30.43,7.3,80.64,13.47,114.84,2.43,13.43,17.79,8.12,20.48,13.49,2.57,5.15-.2,28.71-4.38,33.39-11.01,12.33-60.98,7.11-65.48-14.51ZM563.58-460.37c-14.04-2.64-42.54-8.27-45.11,12-2.51,19.82,16.57,26.67,31.75,16.66,10.03-6.61,15.61-16.36,13.36-28.66Z"/>
  <path class="st1" d="M334.55-367.1c1.49-7.77,1.18-4.69,5.91-4.43,24.98,1.35,41.94,2.71,66.32-6.35,11.65-4.33,43.65-27.16,47.18-27.81,29.69-5.52,26.57,40.75-.37,55.81-36.62,20.47-86.04,2.32-119.05-17.21Z"/>
</svg>