<?xml version="1.0" encoding="UTF-8"?>
<svg id="Layer_1" xmlns="http://www.w3.org/2000/svg" version="1.1" viewBox="0 0 59.6 62.42">
  <!-- Generator: Adobe Illustrator 30.0.0, SVG Export Plug-In . SVG Version: 2.1.1 Build 123)  -->
  <defs>
    <style>
      .st0 {
        fill: #732b00;
      }
    </style>
  </defs>
  <path class="st0" d="M29.82,50.15h0c-1.16,0-1.92-1.18-2.66-2.31-.44-.68-.98-1.52-1.37-1.63-.57-.03-1.38.39-2.07.73-1.25.65-2.49,1.17-3.37.67-.99-.57-1.06-1.96-1.13-3.3-.04-.82-.09-1.83-.39-2.13-.29-.29-1.31-.34-2.12-.38-1.34-.06-2.73-.13-3.3-1.12-.56-.97.06-2.2.66-3.37.38-.74.84-1.66.73-2.08-.11-.39-.94-.93-1.62-1.37-1.14-.73-2.32-1.5-2.32-2.66s1.17-1.92,2.31-2.65c.67-.44,1.51-.99,1.62-1.37.11-.42-.36-1.33-.73-2.07-.6-1.18-1.23-2.41-.67-3.37.57-.98,1.95-1.05,3.3-1.12.82-.04,1.82-.09,2.12-.38.29-.3.35-1.32.39-2.14.07-1.34.14-2.72,1.13-3.29.87-.48,2.12.03,3.37.67.69.35,1.47.75,1.94.75.52-.12,1.07-.96,1.5-1.63.73-1.14,1.5-2.31,2.66-2.31s1.92,1.17,2.66,2.31c.43.67.98,1.51,1.37,1.62.68.06,1.38-.38,2.08-.73,1.26-.63,2.51-1.15,3.37-.66.98.56,1.05,1.95,1.12,3.29.04.82.09,1.84.39,2.14.3.29,1.31.35,2.14.39,1.33.06,2.72.13,3.29,1.12.56.97-.06,2.2-.66,3.38-.38.73-.84,1.66-.73,2.07.11.39.94.93,1.62,1.36,1.14.73,2.32,1.5,2.32,2.66s-1.17,1.93-2.31,2.66c-.67.43-1.51.98-1.62,1.37-.11.42.36,1.34.73,2.07.6,1.19,1.23,2.41.67,3.38-.57.98-1.95,1.05-3.29,1.12-.82.04-1.84.09-2.14.39-.29.3-.35,1.31-.39,2.13-.07,1.34-.14,2.72-1.12,3.29-.87.5-2.12-.02-3.37-.67-.69-.35-1.47-.75-1.94-.75-.52.12-1.07.96-1.5,1.63-.73,1.14-1.5,2.31-2.65,2.31ZM25.65,44.85c.17,0,.33.02.49.06.89.24,1.51,1.19,2.15,2.19.46.72,1.1,1.7,1.53,1.7.42,0,1.06-.98,1.51-1.7.65-1,1.27-1.95,2.15-2.19.86-.25,2,.3,3.04.83.79.4,1.78.85,2.08.7.35-.2.41-1.4.45-2.19.06-1.21.12-2.35.79-3.02.66-.66,1.81-.72,3.02-.78.79-.04,1.98-.1,2.18-.45.19-.33-.35-1.39-.7-2.08-.53-1.04-1.08-2.12-.83-3.04.23-.89,1.18-1.5,2.18-2.15.72-.46,1.7-1.1,1.7-1.53s-.99-1.06-1.7-1.52c-1-.65-1.95-1.26-2.19-2.15-.25-.92.3-2,.83-3.04.36-.7.89-1.75.7-2.08-.2-.35-1.39-.4-2.18-.45-1.21-.06-2.35-.12-3.02-.79-.67-.66-.73-1.81-.79-3.02-.04-.79-.11-1.98-.45-2.18-.32-.14-1.28.29-2.08.7-1.05.54-2.19,1.06-3.04.83-.89-.23-1.5-1.18-2.15-2.18-.46-.72-1.1-1.7-1.53-1.7s-1.06.98-1.53,1.7c-.65,1-1.26,1.95-2.15,2.18-.86.22-1.99-.29-3.04-.83-.79-.4-1.78-.86-2.08-.7-.35.2-.41,1.39-.45,2.18-.06,1.21-.12,2.35-.79,3.02-.66.66-1.8.72-3.01.78-.79.04-1.99.11-2.19.45-.19.33.35,1.39.7,2.08.53,1.04,1.08,2.12.83,3.04-.23.89-1.19,1.5-2.19,2.15-.72.46-1.7,1.1-1.7,1.52s.99,1.06,1.7,1.53c1,.65,1.95,1.26,2.19,2.15.25.92-.3,2-.83,3.05-.36.69-.89,1.75-.7,2.08.2.35,1.4.4,2.19.45,1.21.06,2.35.12,3.02.77.66.67.72,1.81.79,3.02.04.79.1,2,.45,2.2.28.15,1.29-.29,2.08-.7.86-.44,1.75-.9,2.55-.9Z"/>
  <path class="st0" d="M33.64,46.74c-.84,0-1.58-.81-2.37-1.67-.43-.47-1.16-1.27-1.46-1.27s-1.03.8-1.47,1.28c-.88.96-1.79,1.9-2.68,1.63-.96-.26-1.22-1.46-1.5-2.73-.14-.64-.37-1.7-.65-1.85,0,0-.05-.03-.2-.03-.4,0-1.04.2-1.66.4-1.27.39-2.58.68-3.19.06-.72-.72-.32-1.98.06-3.19.2-.61.51-1.61.37-1.86-.15-.27-1.22-.51-1.86-.65-1.27-.28-2.47-.55-2.73-1.5-.26-.97.71-1.85,1.64-2.69.47-.43,1.27-1.16,1.27-1.46s-.8-1.03-1.27-1.46c-.93-.85-1.89-1.73-1.63-2.69.26-.95,1.45-1.22,2.73-1.5.63-.14,1.7-.37,1.85-.64.14-.25-.17-1.26-.37-1.86-.39-1.22-.78-2.47-.06-3.19.62-.63,1.93-.34,3.19.06.62.2,1.25.4,1.66.4.14,0,.19-.02.2-.03.27-.15.51-1.22.65-1.86.28-1.27.55-2.48,1.5-2.73.95-.27,1.8.66,2.69,1.63.43.47,1.16,1.28,1.46,1.28s1.03-.8,1.47-1.28c.88-.97,1.79-1.91,2.68-1.63.96.26,1.22,1.46,1.5,2.73.14.64.37,1.7.65,1.86,0,0,.05.03.2.03h0c.4,0,1.04-.2,1.66-.4,1.28-.4,2.59-.68,3.19-.06.72.72.33,1.97-.06,3.19-.2.6-.51,1.61-.37,1.86.15.27,1.22.51,1.86.65,1.27.28,2.47.55,2.73,1.5.26.97-.66,1.8-1.63,2.69-.47.43-1.28,1.16-1.28,1.46s.8,1.03,1.27,1.46c.93.85,1.89,1.73,1.63,2.69-.25.96-1.45,1.22-2.73,1.5-.63.14-1.7.37-1.85.65-.14.25.17,1.25.37,1.86.38,1.21.78,2.46.07,3.19-.64.61-1.93.33-3.19-.06-.62-.2-1.25-.4-1.66-.4-.15,0-.2.02-.2.03-.27.15-.51,1.22-.65,1.85-.28,1.28-.55,2.48-1.51,2.73-.1.03-.21.04-.31.04ZM29.81,42.59c.84,0,1.57.81,2.36,1.66.44.48,1.16,1.28,1.47,1.28h0c.25-.1.5-1.26.63-1.82.26-1.15.49-2.22,1.23-2.65.62-.36,1.7-.09,2.83.26.63.2,1.28.41,1.71.41.16,0,.23-.03.25-.05.2-.2-.18-1.39-.37-1.96-.34-1.09-.67-2.13-.26-2.83.43-.74,1.51-.97,2.65-1.23.56-.12,1.71-.38,1.82-.62.07-.26-.87-1.12-1.28-1.48-.85-.78-1.66-1.52-1.66-2.36s.81-1.57,1.67-2.36c.4-.37,1.33-1.22,1.28-1.48-.1-.24-1.26-.5-1.82-.63-1.14-.25-2.22-.49-2.65-1.23-.41-.71-.08-1.74.26-2.83.17-.53.56-1.76.37-1.96-.02-.01-.08-.04-.25-.04-.43,0-1.08.21-1.71.41-.74.23-1.43.45-2.02.45h0c-.32,0-.59-.07-.81-.19-.74-.43-.97-1.51-1.23-2.65-.12-.56-.38-1.72-.63-1.82-.3,0-1.03.8-1.47,1.28-.79.86-1.52,1.67-2.37,1.67s-1.58-.81-2.36-1.67c-.44-.47-1.17-1.28-1.47-1.28-.25.1-.51,1.26-.63,1.82-.25,1.14-.49,2.22-1.23,2.65-.66.36-1.7.09-2.82-.27-.63-.2-1.29-.4-1.72-.4-.16,0-.23.03-.25.05-.2.2.2,1.43.37,1.96.34,1.09.67,2.13.26,2.83-.43.74-1.51.97-2.65,1.22-.55.12-1.71.38-1.82.63-.07.25.87,1.11,1.28,1.48.85.78,1.66,1.52,1.66,2.36s-.81,1.57-1.66,2.36c-.4.37-1.35,1.23-1.28,1.48.1.24,1.26.5,1.82.63,1.14.25,2.22.49,2.65,1.23.41.71.08,1.74-.26,2.83-.18.57-.56,1.76-.36,1.96.01.01.08.04.24.04.43,0,1.08-.21,1.71-.41,1.13-.36,2.2-.62,2.83-.26.74.43.97,1.5,1.23,2.65.12.56.38,1.72.63,1.82.3,0,1.03-.8,1.47-1.27.78-.86,1.52-1.67,2.36-1.67Z"/>
  <path class="st0" d="M29.82,44.32c-.92,0-1.36-1.13-1.82-2.33-.19-.51-.52-1.36-.72-1.5-.17.04-.91.63-1.34.98-1.04.85-1.96,1.48-2.68,1.09-.79-.46-.6-1.65-.4-2.89.08-.53.22-1.39.14-1.66,0,.02-.1,0-.26,0-.37,0-.88.08-1.37.16-.55.08-1.11.17-1.58.17-.25,0-.98,0-1.32-.58-.44-.78.3-1.7,1.09-2.68.35-.44.95-1.18.96-1.43-.11-.11-.97-.44-1.48-.64-1.19-.46-2.32-.89-2.32-1.81s1.13-1.36,2.33-1.83c.5-.19,1.36-.52,1.49-.72-.04-.17-.63-.9-.98-1.34-.79-.98-1.54-1.9-1.09-2.68.34-.58,1.07-.58,1.32-.58.47,0,1.03.09,1.57.18.8.13,1.68.12,1.69.12.05-.16-.1-1.08-.19-1.63-.2-1.26-.4-2.44.4-2.89.66-.4,1.63.24,2.68,1.08.44.35,1.18.95,1.43.96.11-.11.44-.97.64-1.48.46-1.2.89-2.32,1.81-2.32s1.36,1.13,1.82,2.33c.19.5.52,1.36.72,1.5.17-.04.9-.63,1.34-.98,1.05-.85,2-1.49,2.69-1.09.78.46.59,1.65.39,2.89-.08.52-.22,1.39-.14,1.66.06-.03.12,0,.26,0,.37,0,.88-.08,1.37-.16.55-.08,1.11-.17,1.58-.17.25,0,.98,0,1.32.58.44.78-.3,1.7-1.09,2.68-.35.44-.95,1.17-.96,1.42.11.11.97.44,1.48.64,1.2.46,2.33.89,2.33,1.82s-1.13,1.36-2.33,1.83c-.51.19-1.36.52-1.49.72.04.17.63.9.98,1.34.79.98,1.54,1.9,1.09,2.68-.34.58-1.07.58-1.32.58-.47,0-1.03-.09-1.57-.18-.81-.13-1.69-.13-1.69-.12-.05.16.1,1.08.19,1.63.2,1.25.39,2.43-.4,2.89-.67.39-1.64-.24-2.68-1.09-.44-.35-1.17-.95-1.42-.96-.11.11-.44.97-.63,1.47-.46,1.2-.89,2.34-1.82,2.34ZM27.36,39.28l.28.04c.73.2,1.09,1.14,1.5,2.23.18.46.46,1.2.67,1.47.22-.28.5-1.01.67-1.48.42-1.09.78-2.03,1.5-2.23l.28-.04c.67,0,1.38.57,2.2,1.24.37.29.94.75,1.25.9.03-.35-.09-1.09-.16-1.56-.19-1.17-.35-2.18.19-2.72.33-.33.81-.37,1.15-.37.47,0,1.03.09,1.57.17.59.1,1.3.17,1.55.16-.15-.32-.61-.89-.9-1.25-.75-.92-1.4-1.73-1.2-2.48.19-.72,1.13-1.09,2.23-1.5.46-.18,1.2-.46,1.47-.68-.27-.21-1.01-.49-1.47-.67-1.09-.41-2.04-.77-2.23-1.5-.2-.75.45-1.56,1.2-2.48.29-.36.75-.93.9-1.24-.25-.03-.96.05-1.55.15-.55.09-1.1.18-1.57.18-.34,0-.82-.04-1.15-.37-.54-.55-.38-1.56-.19-2.73.07-.47.19-1.21.16-1.56-.32.14-.89.61-1.25.9-.82.67-1.52,1.24-2.2,1.24l-.28-.04c-.72-.19-1.09-1.14-1.5-2.23-.18-.46-.46-1.2-.68-1.47-.21.28-.49,1.01-.67,1.47-.41,1.1-.77,2.04-1.51,2.23l-.28.04c-.67,0-1.38-.57-2.2-1.23-.37-.29-.94-.76-1.25-.9-.04.35.08,1.09.16,1.56.19,1.17.35,2.18-.19,2.72-.34.33-.82.37-1.15.37-.47,0-1.03-.09-1.57-.17-.59-.09-1.26-.18-1.56-.15.15.31.61.88.91,1.24.75.92,1.4,1.73,1.2,2.48-.2.72-1.13,1.09-2.23,1.5-.46.18-1.2.46-1.47.68.27.21,1.01.49,1.46.67,1.1.41,2.04.77,2.23,1.51.2.74-.45,1.55-1.2,2.48-.29.36-.75.92-.89,1.24.26.05.96-.06,1.55-.15.55-.09,1.1-.18,1.57-.18.34,0,.82.04,1.15.37.55.53.38,1.55.2,2.72-.08.47-.2,1.21-.16,1.56.31-.15.89-.61,1.25-.91.82-.66,1.53-1.24,2.2-1.24Z"/>
  <path class="st0" d="M32.22,41.01c-.67,0-1.11-.81-1.71-1.92-.2-.36-.5-.92-.7-1.19-.21.28-.51.84-.72,1.21-.6,1.11-1.04,1.91-1.7,1.91l-.19-.02c-.77-.2-.74-1.19-.7-2.56,0-.42.02-1.07-.02-1.43-.31.13-.84.46-1.18.67-.94.58-1.54.93-2.04.93-.3,0-.49-.12-.59-.23-.57-.57-.01-1.47.69-2.62.21-.34.54-.88.67-1.19-.22-.03-.8-.04-1.41-.02-.26,0-.51.01-.75.01-.64,0-1.62,0-1.81-.71-.21-.77.72-1.27,1.9-1.91.36-.2.91-.5,1.19-.7-.28-.21-.84-.51-1.21-.72-1.16-.63-2.09-1.13-1.89-1.89.2-.72,1.17-.72,1.82-.72.47,0,1.01.02,1.48.02.34,0,.55-.02.68-.03-.13-.32-.46-.85-.67-1.19-.7-1.15-1.26-2.06-.69-2.63.1-.11.29-.23.59-.23.5,0,1.1.35,2.04.93.34.21.87.53,1.19.67.04-.35.02-.99.02-1.42-.04-1.37-.06-2.36.7-2.57l.2-.02c.67,0,1.11.8,1.71,1.92.2.36.5.92.71,1.19.21-.28.51-.83.7-1.19.61-1.12,1.04-1.92,1.71-1.92l.2.02c.76.2.73,1.19.7,2.57-.01.42-.02,1.06.02,1.42.31-.14.85-.46,1.19-.67.94-.58,1.54-.93,2.04-.93.29,0,.48.13.59.23.57.56.01,1.47-.69,2.62-.21.35-.54.88-.67,1.2.23.03.79.04,1.41.02.26,0,.51-.01.75-.01.64,0,1.62,0,1.81.71.21.77-.72,1.27-1.89,1.91-.37.2-.92.5-1.21.71.28.21.83.51,1.19.7,1.18.64,2.11,1.14,1.9,1.91-.19.71-1.16.71-1.79.71-.24,0-.51,0-.77-.02-.6,0-1.19,0-1.42.02.13.31.46.85.67,1.19.7,1.15,1.26,2.05.69,2.62-.1.11-.29.23-.59.23-.5,0-1.1-.35-2.05-.93-.34-.21-.86-.53-1.18-.66-.04.35-.02.99-.02,1.41.04,1.37.06,2.36-.7,2.57l-.2.02ZM29.81,36.64c.66,0,1.1.8,1.7,1.91.13.25.32.6.5.88.01-.32,0-.71,0-.99-.03-1.27-.06-2.19.53-2.53.48-.27,1.18.05,2.39.79.27.16.64.39.94.55-.16-.31-.38-.67-.54-.93-.66-1.07-1.13-1.84-.8-2.41.33-.57,1.28-.56,2.54-.52.34,0,.7,0,.97.01-.28-.17-.63-.36-.88-.5-1.11-.6-1.9-1.04-1.9-1.7s.8-1.1,1.92-1.71c.24-.13.59-.32.87-.49-.28.01-.64,0-.99.01-1.26.01-2.19.04-2.52-.53-.33-.57.14-1.34.8-2.41.16-.26.37-.61.53-.91-.3.16-.66.38-.92.54-1.22.74-1.91,1.06-2.4.8-.58-.34-.56-1.26-.53-2.52,0-.28.01-.66,0-.99-.17.28-.36.62-.5.88-.6,1.1-1.04,1.91-1.7,1.91s-1.1-.8-1.7-1.91c-.13-.26-.32-.6-.5-.88-.01.32,0,.71,0,.99.03,1.27.06,2.19-.53,2.52-.5.26-1.19-.05-2.39-.79-.26-.16-.63-.39-.94-.55.17.31.39.67.55.93.65,1.07,1.12,1.83.8,2.4-.26.45-.85.54-1.77.54-.47,0-1-.02-1.48-.02h-.26c.28.17.62.36.86.49,1.11.61,1.92,1.04,1.92,1.71s-.8,1.1-1.9,1.7c-.26.13-.6.32-.89.5.27.02.64,0,.99,0,1.28-.03,2.2-.05,2.53.53.33.56-.14,1.34-.8,2.4-.16.26-.38.62-.54.93.31-.16.67-.39.94-.55,1.21-.74,1.9-1.07,2.39-.8.59.34.56,1.26.53,2.54,0,.28-.02.66,0,.97.17-.28.35-.62.48-.86.61-1.12,1.04-1.92,1.71-1.92Z"/>
  <path class="st0" d="M29.81,38.3c-.74,0-.82-.85-.96-2.4-.02-.24-.05-.54-.08-.8-.17.22-.35.48-.5.69-.83,1.17-1.19,1.65-1.68,1.65h-.16l-.17-.09c-.63-.37-.3-1.09.36-2.53.11-.22.23-.5.34-.76-.26.11-.53.24-.75.34-.95.43-1.54.69-1.93.69h-.32l-.29-.32c-.36-.63.28-1.09,1.56-2,.21-.14.46-.33.69-.5-.27-.03-.55-.06-.8-.08-1.6-.16-2.4-.23-2.4-.96s.85-.82,2.4-.97c.24-.02.53-.05.8-.08-.23-.17-.49-.35-.69-.5-1.29-.91-1.93-1.38-1.57-2l.17-.29.45-.04c.39,0,.95.25,1.92.7.22.1.5.22.75.34-.11-.26-.23-.53-.34-.75-.66-1.44-1-2.17-.36-2.54l.13-.07h.19c.48-.01.8.42,1.68,1.64.14.21.32.46.49.68.03-.27.06-.57.08-.8.16-1.6.23-2.4.96-2.4s.82.86.97,2.41c.02.24.05.52.08.79.17-.23.35-.49.5-.69.88-1.23,1.2-1.66,1.68-1.66h.15l.17.09c.63.38.3,1.1-.36,2.55-.1.22-.22.49-.34.74.26-.11.53-.23.75-.34.96-.44,1.53-.7,1.92-.7h.33l.29.34c.37.62-.28,1.08-1.56,2-.21.15-.46.33-.69.5.27.03.56.06.8.08,1.6.16,2.41.23,2.41.96s-.85.82-2.4.97c-.24.02-.53.05-.8.08.22.17.48.35.68.49,1.29.92,1.93,1.38,1.57,2.01l-.17.29-.45.04c-.39,0-.96-.25-1.93-.7-.22-.1-.49-.22-.75-.34.11.26.24.54.34.76.66,1.44,1,2.17.36,2.53l-.13.07h-.19c-.49.01-.85-.47-1.68-1.64-.15-.21-.32-.46-.49-.68-.03.26-.06.55-.08.78-.15,1.56-.23,2.41-.97,2.41ZM29.03,33.44l.18.02c.34.09.5.36.6.88.11-.52.27-.79.61-.88l.16-.02c.27,0,.49.14.78.45-.16-.48-.14-.79.1-1.03l.17-.17.34-.03c.14,0,.31.04.52.11-.37-.34-.52-.62-.42-.95.09-.34.36-.5.87-.6-.51-.11-.78-.27-.88-.6-.09-.34.06-.61.43-.95-.21.07-.37.1-.52.1h-.24l-.27-.2c-.24-.24-.26-.55-.09-1.04-.29.32-.52.46-.78.46l-.18-.02c-.33-.09-.49-.37-.6-.88-.11.51-.27.78-.6.88l-.17.02c-.26,0-.49-.14-.77-.45.15.48.14.78-.09,1.03l-.17.17-.35.03c-.14,0-.31-.04-.52-.1.37.33.51.6.42.93-.09.34-.37.5-.88.61.51.11.78.27.88.6.09.34-.06.61-.43.95.21-.07.38-.1.52-.1h.24l.27.21c.24.24.25.54.09,1.03.29-.31.51-.45.77-.45Z"/>
  <path class="st0" d="M29.81,35.04h-.26l-.19-.19c-.19-.21-.22-.39-.18-1.34-.29.56-.46.86-.64.99l-.25.4.08-.32c-.06.01-.12.02-.19.02h-.16l-.37-.22-.06-.26c-.06-.27,0-.43.49-1.19l-.36.23.04-.05c-.45.28-.57.31-.73.31h-.35l-.31-.53.06-.25c.08-.27.22-.38,1.06-.82-.24.01-.45.02-.61.02l-.83-.06-.08-.57c0-.64.69-.64.92-.64.16,0,.38,0,.6.02l-.38-.2h.02c-.53-.29-.64-.4-.71-.63l-.08-.24.29-.54h.37c.2,0,.33.04,1.07.51l-.25-.39.03.02c-.27-.44-.32-.6-.28-.79l-.09-.16.1.09.06-.25.36-.21h.17c.33,0,.48.14.8.72v-.06s.17.34.17.34v-.35s0,.04,0,.04c0-.23,0-.4.02-.53l.02-1.2.19.76.15-.15h.52l.18.19c.19.21.22.38.18,1.34.48-.9.62-1.1,1-1.1h.16l.38.21.06.27c.05.22.01.37-.27.83l.04-.02-.04.06.03-.02-.22.34c.7-.45.84-.49,1.03-.49h.35l.31.54-.08.25c-.08.26-.22.38-1.01.79l.37-.02-.06.03c.82.02,1.16.16,1.16.63,0,.64-.7.64-.93.64-.07,0-.15,0-.25,0l1.31.69-.77-.15c.09.09.13.17.17.28l.08.24-.29.54h-.37c-.16,0-.28-.02-.73-.3l.06.09-.37-.24c.45.72.52.9.46,1.16l-.05.25-.37.22h-.17c-.39,0-.52-.18-.99-1.09.04.96.01,1.12-.18,1.33l-.18.19h-.26Z"/>
</svg>